<svg width="55" height="48" viewBox="0 0 55 48" xmlns="http://www.w3.org/2000/svg">
    <path d="M8.89.88c-.18-.832.977-1.239 1.357-.476l3.214 6.442.017-.014.705 1.46 2.245 4.5.02-.018 1.176 2.416 2.142 4.294c.081-.082.164-.164.249-.246 2.312-2.244 5.771-4.355 9.73-5.896 3.788-1.475 7.59-2.256 10.733-2.243l.424.007c1.603.045 2.984.306 4.065.78 1.163.509 1.975 1.263 2.354 2.237.245.628.295 1.31.162 2.027 3.463-.028 6.005.896 6.725 2.744 1.348 3.463-4.216 8.861-12.426 12.058-3.63 1.413-7.17 2.158-10.106 2.251v1.94C27.426 54.968.36 48.36 0 38.627c0-4.993 6.238-12.61 13.593-16.336a.693.693 0 0 1-.13-.283l-.847-3.91-.37-1.629.015-.013-1.018-4.706-.011.01-.16-.798-1.209-5.586-.008.007-.29-1.377zm4.878 30.227a2.609 2.609 0 1 0 0 5.217 2.609 2.609 0 0 0 0-5.217zm16.794-15.668c-3.23 1.257-6.085 2.91-8.144 4.656 2.395.097 4.698.862 6.74 2.508 2.087-1.557 4.736-3.022 7.742-4.192 2.877-1.12 5.697-1.821 8.205-2.11l-.064.154c.287-.651.327-1.148.184-1.516-.144-.368-.509-.707-1.16-.992-.79-.346-1.892-.555-3.226-.592-2.9-.08-6.583.645-10.277 2.084zm-14.134-2.647-4.167 3.664.355 1.642.355 1.56 4.782-4.203-.129-.265-1.196-2.398zm-2.967-5.946-2.737 2.377.348 1.739.17.788 3.25-2.817-.309-.64-.722-1.447zm-2.084-4.144-1.81 1.303.296 1.371 2.093-1.515-.58-1.16z" fill="#000" fill-rule="nonzero"/>
</svg>
