<svg width="56" height="64" viewBox="0 0 56 64" xmlns="http://www.w3.org/2000/svg">
    <g fill="#FF007A" fill-rule="nonzero">
        <path d="M21.786 14.556c-.693-.1-.726-.132-.396-.165.627-.1 2.08.033 3.102.264 2.377.561 4.522 2.013 6.8 4.555l.594.693.858-.132c3.664-.594 7.427-.132 10.562 1.32.858.396 2.212 1.189 2.377 1.387.066.066.165.495.23.924.232 1.551.133 2.706-.362 3.597-.264.496-.264.628-.1 1.057.133.33.529.56.892.56.792 0 1.617-1.253 2.013-3.003l.165-.693.297.33c1.684 1.882 3.004 4.489 3.202 6.337l.066.496-.297-.43c-.495-.759-.957-1.254-1.584-1.683-1.123-.76-2.31-.99-5.446-1.155-2.839-.165-4.456-.396-6.04-.924-2.707-.892-4.093-2.047-7.295-6.305-1.42-1.881-2.31-2.904-3.202-3.762-1.947-1.882-3.895-2.872-6.436-3.268z"/>
        <path d="M46.376 18.748c.066-1.254.23-2.08.594-2.839.132-.297.264-.56.297-.56.033 0-.033.23-.132.494-.264.726-.297 1.75-.132 2.905.231 1.485.33 1.683 1.914 3.3a53.46 53.46 0 0 1 1.915 2.113l.56.726-.56-.528c-.693-.66-2.278-1.914-2.64-2.08-.232-.132-.265-.132-.43.034-.132.132-.165.33-.165 1.287-.033 1.485-.23 2.41-.726 3.366-.264.496-.297.397-.066-.165.165-.429.198-.627.198-2.046 0-2.872-.33-3.565-2.343-4.72-.496-.297-1.354-.726-1.849-.957-.528-.231-.924-.43-.891-.43.066-.065 2.013.496 2.773.826 1.155.462 1.353.495 1.485.462.099-.099.165-.363.198-1.188zM23.14 23.666c-1.387-1.915-2.278-4.885-2.08-7.097l.066-.693.33.066c.594.1 1.617.495 2.112.792 1.32.793 1.915 1.882 2.476 4.588.165.792.396 1.717.495 2.014.165.495.792 1.65 1.32 2.376.363.528.132.792-.693.726-1.254-.132-2.938-1.287-4.027-2.772zM44.693 38.024c-6.536-2.64-8.846-4.918-8.846-8.78 0-.561.033-1.023.033-1.023.033 0 .264.198.56.429 1.321 1.056 2.806 1.518 6.932 2.112 2.41.363 3.796.627 5.05 1.056 3.994 1.32 6.47 4.027 7.064 7.691.165 1.056.066 3.07-.198 4.126-.231.825-.891 2.343-1.057 2.376-.033 0-.099-.165-.099-.429-.066-1.386-.759-2.706-1.914-3.73-1.386-1.188-3.169-2.079-7.525-3.828zM40.072 39.113a7.819 7.819 0 0 0-.33-1.386l-.165-.495.297.363c.429.495.759 1.089 1.056 1.914.23.627.23.825.23 1.848 0 .99-.032 1.222-.23 1.783-.33.89-.726 1.518-1.386 2.211-1.189 1.221-2.74 1.882-4.952 2.179-.396.033-1.518.132-2.508.198-2.476.132-4.126.396-5.611.924-.198.066-.396.132-.43.099-.065-.066.958-.66 1.783-1.056 1.155-.561 2.344-.858 4.951-1.32 1.287-.199 2.608-.463 2.938-.595 3.267-1.023 4.885-3.564 4.357-6.667z"/>
        <path d="M43.075 44.427c-.858-1.881-1.056-3.664-.594-5.347.066-.165.132-.33.198-.33s.264.099.462.23c.396.265 1.221.727 3.334 1.882 2.673 1.453 4.192 2.575 5.248 3.862.924 1.122 1.485 2.41 1.75 3.994.164.891.065 3.037-.166 3.928-.726 2.805-2.376 5.05-4.786 6.337-.363.198-.66.33-.693.33-.033 0 .1-.33.297-.726.792-1.683.891-3.3.297-5.116-.363-1.122-1.122-2.476-2.64-4.753-1.816-2.64-2.245-3.334-2.707-4.291zM18.485 54.527c2.443-2.046 5.446-3.499 8.219-3.96 1.188-.199 3.169-.133 4.258.164 1.75.462 3.333 1.453 4.159 2.674.792 1.188 1.155 2.211 1.518 4.489.132.89.297 1.815.33 2.013.264 1.188.792 2.113 1.452 2.608 1.023.759 2.806.792 4.555.132.297-.1.561-.198.561-.165.066.066-.825.66-1.419.957-.825.429-1.485.561-2.376.561-1.585 0-2.938-.825-4.027-2.476-.231-.33-.693-1.287-1.09-2.178-1.155-2.673-1.749-3.466-3.102-4.357-1.188-.759-2.707-.924-3.862-.363-1.518.726-1.914 2.674-.858 3.862.429.495 1.221.891 1.881.99 1.222.165 2.278-.792 2.278-2.013 0-.792-.297-1.255-1.09-1.618-1.056-.462-2.21.066-2.178 1.09 0 .429.198.693.627.89.264.133.264.133.066.1-.957-.198-1.188-1.387-.429-2.146.924-.924 2.872-.528 3.532.76.264.528.297 1.584.066 2.244-.561 1.452-2.146 2.211-3.763 1.782-1.09-.297-1.551-.594-2.871-1.947-2.31-2.377-3.202-2.839-6.503-3.334l-.627-.099.693-.66zM1.124 1.42c7.69 9.34 19.54 23.863 20.134 24.655.495.66.297 1.288-.528 1.75-.462.264-1.42.528-1.882.528-.528 0-1.155-.264-1.584-.693-.297-.297-1.584-2.179-4.489-6.7-2.211-3.466-4.093-6.338-4.126-6.371-.132-.066-.132-.066 3.895 7.13 2.542 4.521 3.367 6.139 3.367 6.337 0 .429-.132.66-.66 1.254-.892.99-1.288 2.112-1.585 4.456-.33 2.607-1.221 4.456-3.763 7.591-1.485 1.849-1.716 2.179-2.079 2.938-.462.924-.594 1.452-.66 2.64-.066 1.255.066 2.047.429 3.235.33 1.056.693 1.75 1.584 3.103.76 1.188 1.222 2.08 1.222 2.41 0 .263.066.263 1.254 0 2.838-.66 5.182-1.783 6.47-3.17.791-.858.99-1.32.99-2.508 0-.759-.034-.924-.232-1.386-.33-.726-.957-1.32-2.31-2.245-1.783-1.22-2.542-2.211-2.74-3.531-.165-1.123.033-1.882 1.023-3.961 1.024-2.146 1.288-3.037 1.453-5.215.099-1.386.264-1.948.66-2.377.429-.462.792-.627 1.815-.759 1.684-.23 2.773-.66 3.631-1.485.76-.693 1.09-1.386 1.122-2.41l.033-.759-.429-.462C21.588 23.633.1 0 .001 0c-.033 0 .496.627 1.123 1.42zm10.133 46.935a1.363 1.363 0 0 0-.43-1.816c-.56-.363-1.419-.198-1.419.298 0 .132.066.264.264.33.297.165.33.33.1.693-.232.363-.232.693.065.924.463.363 1.09.165 1.42-.43zM24.822 31.022c-.877.314-1.717 1.48-1.973 2.646-.146.717-.073 2.017.183 2.42.402.629.767.808 1.79.808 2.01 0 3.726-1.076 3.91-2.376.182-1.077-.585-2.556-1.645-3.229-.548-.358-1.68-.493-2.265-.269zm2.338 2.242c.292-.538.183-1.12-.365-1.524-.987-.763-2.484-.135-2.484 1.03 0 .584.767 1.211 1.497 1.211.475 0 1.133-.358 1.352-.717z"/>
    </g>
</svg>
