<svg width="120" height="32" viewBox="0 0 120 32" xmlns="http://www.w3.org/2000/svg">
    <path d="M36.77 5.75h4.162v16.765h7.657v3.736H36.771V5.75zM51.884 26.25h4.161V5.75h-4.161v20.502zm13.09-4.162c-.597-.284-.983-.725-1.156-1.324-.173-.598-.26-1.543-.26-2.838v-3.971c0-1.235.087-2.147.26-2.736.173-.588.553-1.024 1.141-1.309.588-.284 1.536-.426 2.847-.426 1.31 0 2.259.142 2.846.426.588.285.973.726 1.156 1.324.183.598.275 1.505.275 2.721v3.971c0 1.275-.092 2.216-.275 2.824-.183.608-.573 1.054-1.17 1.338-.598.285-1.542.427-2.832.427-1.29 0-2.235-.142-2.832-.427zm9.177.653c.031-.069-.013.062 0 0 .501-.117.97-.56 1.27-.932.298-.372.519-.887.664-1.545.144-.656.216-1.494.216-2.515v-3.559c0-2-.183-3.578-.549-4.736-.366-1.156-1.16-2.063-2.383-2.72-1.224-.657-3.078-.986-5.563-.986s-4.335.329-5.548.986c-1.214.657-2.004 1.564-2.37 2.72-.366 1.158-.549 2.736-.549 4.736v3.56c0 2.157.212 3.829.636 5.014.423 1.187 1.242 2.065 2.456 2.634 1.214.568 3.005.852 5.375.852l.029-.002v.002h9.958v-3.676l-3.642.167zm9.618-3.844c0 .941.062 1.642.188 2.103.125.46.452.828.982 1.103s1.382.411 2.557.411c1.156 0 1.999-.136 2.529-.411.53-.275.857-.648.982-1.118.125-.47.188-1.176.188-2.118V5.778h4.161v12.973c0 1.823-.169 3.245-.505 4.265-.338 1.02-1.074 1.814-2.211 2.382-1.137.569-2.851.853-5.144.853-2.311 0-4.03-.284-5.158-.853-1.127-.568-1.864-1.362-2.21-2.382-.347-1.02-.52-2.442-.52-4.265V5.778h4.16v13.12zm14.881 7.353h4.162V5.778h-4.162v20.473zm7.658-3.912c.982.059 2.017.113 3.106.162 1.088.049 2.124.073 3.106.073.655 0 1.175-.053 1.56-.162.386-.107.684-.318.897-.632.211-.313.317-.765.317-1.353 0-.608-.072-1.064-.216-1.368-.145-.303-.4-.544-.766-.72-.366-.177-.915-.343-1.647-.5l-1.416-.353c-1.233-.275-2.23-.696-2.99-1.265-.762-.569-1.311-1.26-1.648-2.074-.337-.814-.505-1.75-.505-2.81 0-1.176.216-2.176.65-3 .433-.823 1.102-1.456 2.008-1.897.905-.441 2.06-.662 3.467-.662 1.079 0 2.071.04 2.977.118.905.079 1.974.216 3.207.412l-.087 3.353a76.705 76.705 0 0 0-2.947-.162 68.455 68.455 0 0 0-2.196-.044c-1.022 0-1.754.147-2.196.442-.444.293-.665.833-.665 1.617 0 .47.072.83.217 1.074.144.245.37.446.679.603.308.157.78.314 1.416.47l1.763.471c1.213.314 2.191.721 2.932 1.22.742.501 1.291 1.133 1.647 1.898.357.765.535 1.726.535 2.883 0 1.431-.25 2.598-.751 3.5-.501.902-1.253 1.564-2.254 1.986-1.002.42-2.283.632-3.843.632-1.156 0-2.23-.05-3.222-.147a65.764 65.764 0 0 1-3.251-.412l.116-3.353zm-93.61-10.176L8.48 22.883h15.949L21.089 32H9.158a5.232 5.232 0 0 1-4.328-2.289 5.233 5.233 0 0 1-.841-3.791 5.23 5.23 0 0 1-3.081-2.142 5.231 5.231 0 0 1-.54-4.87l2.668-6.745h9.662zm7.17 13.907H7.227a2.02 2.02 0 0 0 .236 1.847 2.02 2.02 0 0 0 1.694.896h9.706l1.004-2.743zM8.02 15.35H5.202L3.33 20.08a2.023 2.023 0 0 0 .211 1.906c.354.52.9.839 1.516.89l2.96-7.526zM18.366 0c1.734 0 3.352.856 4.329 2.289a5.233 5.233 0 0 1 .84 3.791 5.231 5.231 0 0 1 3.082 2.142 5.232 5.232 0 0 1 .539 4.87l-2.668 6.746h-9.662l4.217-10.722H3.095L6.434 0h11.932zm4.099 9.124-2.96 7.527h2.816l1.871-4.73a2.021 2.021 0 0 0-.21-1.907c-.355-.52-.9-.839-1.517-.89zm-4.099-5.937H8.66L7.656 5.93h12.64a2.02 2.02 0 0 0-.235-1.847 2.022 2.022 0 0 0-1.695-.896z" fill="#0180FF" fill-rule="evenodd"/>
</svg>
