<svg version="1.1" xmlns="http://www.w3.org/2000/svg" xmlns:xlink="http://www.w3.org/1999/xlink" x="0px" y="0px"
	width="28" height="32" viewBox="0 0 28 32" xml:space="preserve">
<path fill="#0180FF" fill-rule="evenodd" d="M12.7,12.2L8.5,22.9h15.9L21.1,32H9.2c-1.7,0-3.4-0.9-4.3-2.3c-0.8-1.1-1.1-2.5-0.8-3.8
	c-1.3-0.3-2.4-1.1-3.1-2.1c-1-1.4-1.2-3.3-0.5-4.9L3,12.2L12.7,12.2L12.7,12.2z M19.9,26.1H7.2c-0.2,0.6-0.1,1.3,0.2,1.8
	c0.4,0.6,1,0.9,1.7,0.9h9.7L19.9,26.1L19.9,26.1z M8,15.4H5.2l-1.9,4.7c-0.3,0.6-0.2,1.3,0.2,1.9c0.4,0.5,0.9,0.8,1.5,0.9L8,15.4
	L8,15.4z M18.4,0c1.7,0,3.4,0.9,4.3,2.3c0.8,1.1,1.1,2.5,0.8,3.8c1.3,0.3,2.4,1.1,3.1,2.1c1,1.4,1.2,3.3,0.5,4.9l-2.7,6.7h-9.7
	L19,9.1H3.1L6.4,0C6.4,0,18.4,0,18.4,0z M22.5,9.1l-3,7.5h2.8l1.9-4.7c0.3-0.6,0.2-1.3-0.2-1.9C23.6,9.5,23.1,9.2,22.5,9.1z
	 M18.4,3.2H8.7l-1,2.7h12.6c0.2-0.6,0.1-1.3-0.2-1.8C19.7,3.5,19,3.2,18.4,3.2z"/>
</svg>
